<?xml version="1.0" encoding="utf-8" standalone="no"?>
<!DOCTYPE svg PUBLIC "-//W3C//DTD SVG 1.1//EN"
  "http://www.w3.org/Graphics/SVG/1.1/DTD/svg11.dtd">
<svg xmlns:xlink="http://www.w3.org/1999/xlink" width="480.5275pt" height="343.70025pt" viewBox="0 0 480.5275 343.70025" xmlns="http://www.w3.org/2000/svg" version="1.1">
 <metadata>
  <rdf:RDF xmlns:dc="http://purl.org/dc/elements/1.1/" xmlns:cc="http://creativecommons.org/ns#" xmlns:rdf="http://www.w3.org/1999/02/22-rdf-syntax-ns#">
   <cc:Work>
    <dc:type rdf:resource="http://purl.org/dc/dcmitype/StillImage"/>
    <dc:date>2026-04-03T17:29:24.766508</dc:date>
    <dc:format>image/svg+xml</dc:format>
    <dc:creator>
     <cc:Agent>
      <dc:title>Matplotlib v3.10.7, https://matplotlib.org/</dc:title>
     </cc:Agent>
    </dc:creator>
   </cc:Work>
  </rdf:RDF>
 </metadata>
 <defs>
  <style type="text/css">*{stroke-linejoin: round; stroke-linecap: butt}</style>
 </defs>
 <g id="figure_1">
  <g id="patch_1">
   <path d="M 0 343.70025 
L 480.5275 343.70025 
L 480.5275 0 
L 0 0 
z
" style="fill: #ffffff"/>
  </g>
  <g id="axes_1">
   <g id="patch_2">
    <path d="M 43.78125 306.144 
L 456.70125 306.144 
L 456.70125 63.8784 
L 43.78125 63.8784 
z
" style="fill: #ffffff"/>
   </g>
   <g id="FillBetweenPolyCollection_1">
    <defs>
     <path id="m007424d8a4" d="M 62.550341 -48.568323 
L 62.550341 -167.923858 
L 68.912745 -268.809777 
L 75.275148 -266.893119 
L 81.637552 -247.02957 
L 87.999956 -215.49183 
L 94.362359 -188.484373 
L 100.724763 -148.583034 
L 107.087167 -134.992185 
L 113.44957 -121.052852 
L 119.811974 -102.583236 
L 126.174378 -97.181745 
L 132.536782 -90.037837 
L 138.899185 -79.060613 
L 145.261589 -72.265188 
L 151.623993 -69.30308 
L 157.986396 -64.424314 
L 164.3488 -62.159172 
L 170.711204 -60.93948 
L 177.073607 -58.500097 
L 183.436011 -56.060714 
L 189.798415 -58.151614 
L 196.160819 -55.189506 
L 202.523222 -53.447089 
L 208.885626 -52.401639 
L 215.24803 -51.007706 
L 221.610433 -50.659223 
L 227.972837 -51.007706 
L 234.335241 -51.181948 
L 240.697644 -49.962256 
L 247.060048 -50.136498 
L 253.422452 -50.310739 
L 259.784856 -49.962256 
L 266.147259 -49.091048 
L 272.509663 -49.962256 
L 278.872067 -49.439531 
L 285.23447 -49.265289 
L 291.596874 -48.742564 
L 297.959278 -49.613773 
L 304.321681 -49.091048 
L 310.684085 -48.742564 
L 317.046489 -49.265289 
L 323.408893 -49.091048 
L 329.771296 -49.265289 
L 336.1337 -48.916806 
L 342.496104 -48.916806 
L 348.858507 -48.742564 
L 355.220911 -49.265289 
L 361.583315 -48.568323 
L 367.945718 -48.916806 
L 374.308122 -48.742564 
L 380.670526 -48.916806 
L 387.03293 -48.568323 
L 393.395333 -48.568323 
L 399.757737 -48.742564 
L 406.120141 -48.568323 
L 412.482544 -48.568323 
L 418.844948 -48.742564 
L 425.207352 -48.916806 
L 431.569755 -48.742564 
L 437.932159 -48.742564 
L 437.932159 -48.568323 
L 437.932159 -48.568323 
L 431.569755 -48.568323 
L 425.207352 -48.568323 
L 418.844948 -48.568323 
L 412.482544 -48.568323 
L 406.120141 -48.568323 
L 399.757737 -48.568323 
L 393.395333 -48.568323 
L 387.03293 -48.568323 
L 380.670526 -48.568323 
L 374.308122 -48.568323 
L 367.945718 -48.568323 
L 361.583315 -48.568323 
L 355.220911 -48.568323 
L 348.858507 -48.568323 
L 342.496104 -48.568323 
L 336.1337 -48.568323 
L 329.771296 -48.568323 
L 323.408893 -48.568323 
L 317.046489 -48.568323 
L 310.684085 -48.568323 
L 304.321681 -48.568323 
L 297.959278 -48.568323 
L 291.596874 -48.568323 
L 285.23447 -48.568323 
L 278.872067 -48.568323 
L 272.509663 -48.568323 
L 266.147259 -48.568323 
L 259.784856 -48.568323 
L 253.422452 -48.568323 
L 247.060048 -48.568323 
L 240.697644 -48.568323 
L 234.335241 -48.568323 
L 227.972837 -48.568323 
L 221.610433 -48.568323 
L 215.24803 -48.568323 
L 208.885626 -48.568323 
L 202.523222 -48.568323 
L 196.160819 -48.568323 
L 189.798415 -48.568323 
L 183.436011 -48.568323 
L 177.073607 -48.568323 
L 170.711204 -48.568323 
L 164.3488 -48.568323 
L 157.986396 -48.568323 
L 151.623993 -48.568323 
L 145.261589 -48.568323 
L 138.899185 -48.568323 
L 132.536782 -48.568323 
L 126.174378 -48.568323 
L 119.811974 -48.568323 
L 113.44957 -48.568323 
L 107.087167 -48.568323 
L 100.724763 -48.568323 
L 94.362359 -48.568323 
L 87.999956 -48.568323 
L 81.637552 -48.568323 
L 75.275148 -48.568323 
L 68.912745 -48.568323 
L 62.550341 -48.568323 
z
" style="stroke: #67a6df; stroke-opacity: 0.35"/>
    </defs>
    <g clip-path="url(#p4b23bf7bdd)">
     <use xlink:href="#m007424d8a4" x="0" y="343.70025" style="fill: #67a6df; fill-opacity: 0.35; stroke: #67a6df; stroke-opacity: 0.35"/>
    </g>
   </g>
   <g id="matplotlib.axis_1">
    <g id="xtick_1">
     <g id="line2d_1">
      <path d="M 59.052787 306.144 
L 59.052787 63.8784 
" clip-path="url(#p4b23bf7bdd)" style="fill: none; stroke: #b0b0b0; stroke-opacity: 0.22; stroke-width: 0.8; stroke-linecap: square"/>
     </g>
     <g id="line2d_2">
      <defs>
       <path id="md76043577d" d="M 0 0 
L 0 3.5 
" style="stroke: #000000; stroke-width: 0.8"/>
      </defs>
      <g>
       <use xlink:href="#md76043577d" x="59.052787" y="306.144" style="stroke: #000000; stroke-width: 0.8"/>
      </g>
     </g>
     <g id="text_1">
      <!-- 0 -->
      <g transform="translate(55.871537 320.742437) scale(0.1 -0.1)">
       <defs>
        <path id="DejaVuSans-30" d="M 2034 4250 
Q 1547 4250 1301 3770 
Q 1056 3291 1056 2328 
Q 1056 1369 1301 889 
Q 1547 409 2034 409 
Q 2525 409 2770 889 
Q 3016 1369 3016 2328 
Q 3016 3291 2770 3770 
Q 2525 4250 2034 4250 
z
M 2034 4750 
Q 2819 4750 3233 4129 
Q 3647 3509 3647 2328 
Q 3647 1150 3233 529 
Q 2819 -91 2034 -91 
Q 1250 -91 836 529 
Q 422 1150 422 2328 
Q 422 3509 836 4129 
Q 1250 4750 2034 4750 
z
" transform="scale(0.015625)"/>
       </defs>
       <use xlink:href="#DejaVuSans-30"/>
      </g>
     </g>
    </g>
    <g id="xtick_2">
     <g id="line2d_3">
      <path d="M 106.113448 306.144 
L 106.113448 63.8784 
" clip-path="url(#p4b23bf7bdd)" style="fill: none; stroke: #b0b0b0; stroke-opacity: 0.22; stroke-width: 0.8; stroke-linecap: square"/>
     </g>
     <g id="line2d_4">
      <g>
       <use xlink:href="#md76043577d" x="106.113448" y="306.144" style="stroke: #000000; stroke-width: 0.8"/>
      </g>
     </g>
     <g id="text_2">
      <!-- 1 -->
      <g transform="translate(102.932198 320.742437) scale(0.1 -0.1)">
       <defs>
        <path id="DejaVuSans-31" d="M 794 531 
L 1825 531 
L 1825 4091 
L 703 3866 
L 703 4441 
L 1819 4666 
L 2450 4666 
L 2450 531 
L 3481 531 
L 3481 0 
L 794 0 
L 794 531 
z
" transform="scale(0.015625)"/>
       </defs>
       <use xlink:href="#DejaVuSans-31"/>
      </g>
     </g>
    </g>
    <g id="xtick_3">
     <g id="line2d_5">
      <path d="M 153.174109 306.144 
L 153.174109 63.8784 
" clip-path="url(#p4b23bf7bdd)" style="fill: none; stroke: #b0b0b0; stroke-opacity: 0.22; stroke-width: 0.8; stroke-linecap: square"/>
     </g>
     <g id="line2d_6">
      <g>
       <use xlink:href="#md76043577d" x="153.174109" y="306.144" style="stroke: #000000; stroke-width: 0.8"/>
      </g>
     </g>
     <g id="text_3">
      <!-- 2 -->
      <g transform="translate(149.992859 320.742437) scale(0.1 -0.1)">
       <defs>
        <path id="DejaVuSans-32" d="M 1228 531 
L 3431 531 
L 3431 0 
L 469 0 
L 469 531 
Q 828 903 1448 1529 
Q 2069 2156 2228 2338 
Q 2531 2678 2651 2914 
Q 2772 3150 2772 3378 
Q 2772 3750 2511 3984 
Q 2250 4219 1831 4219 
Q 1534 4219 1204 4116 
Q 875 4013 500 3803 
L 500 4441 
Q 881 4594 1212 4672 
Q 1544 4750 1819 4750 
Q 2544 4750 2975 4387 
Q 3406 4025 3406 3419 
Q 3406 3131 3298 2873 
Q 3191 2616 2906 2266 
Q 2828 2175 2409 1742 
Q 1991 1309 1228 531 
z
" transform="scale(0.015625)"/>
       </defs>
       <use xlink:href="#DejaVuSans-32"/>
      </g>
     </g>
    </g>
    <g id="xtick_4">
     <g id="line2d_7">
      <path d="M 200.23477 306.144 
L 200.23477 63.8784 
" clip-path="url(#p4b23bf7bdd)" style="fill: none; stroke: #b0b0b0; stroke-opacity: 0.22; stroke-width: 0.8; stroke-linecap: square"/>
     </g>
     <g id="line2d_8">
      <g>
       <use xlink:href="#md76043577d" x="200.23477" y="306.144" style="stroke: #000000; stroke-width: 0.8"/>
      </g>
     </g>
     <g id="text_4">
      <!-- 3 -->
      <g transform="translate(197.05352 320.742437) scale(0.1 -0.1)">
       <defs>
        <path id="DejaVuSans-33" d="M 2597 2516 
Q 3050 2419 3304 2112 
Q 3559 1806 3559 1356 
Q 3559 666 3084 287 
Q 2609 -91 1734 -91 
Q 1441 -91 1130 -33 
Q 819 25 488 141 
L 488 750 
Q 750 597 1062 519 
Q 1375 441 1716 441 
Q 2309 441 2620 675 
Q 2931 909 2931 1356 
Q 2931 1769 2642 2001 
Q 2353 2234 1838 2234 
L 1294 2234 
L 1294 2753 
L 1863 2753 
Q 2328 2753 2575 2939 
Q 2822 3125 2822 3475 
Q 2822 3834 2567 4026 
Q 2313 4219 1838 4219 
Q 1578 4219 1281 4162 
Q 984 4106 628 3988 
L 628 4550 
Q 988 4650 1302 4700 
Q 1616 4750 1894 4750 
Q 2613 4750 3031 4423 
Q 3450 4097 3450 3541 
Q 3450 3153 3228 2886 
Q 3006 2619 2597 2516 
z
" transform="scale(0.015625)"/>
       </defs>
       <use xlink:href="#DejaVuSans-33"/>
      </g>
     </g>
    </g>
    <g id="xtick_5">
     <g id="line2d_9">
      <path d="M 247.295431 306.144 
L 247.295431 63.8784 
" clip-path="url(#p4b23bf7bdd)" style="fill: none; stroke: #b0b0b0; stroke-opacity: 0.22; stroke-width: 0.8; stroke-linecap: square"/>
     </g>
     <g id="line2d_10">
      <g>
       <use xlink:href="#md76043577d" x="247.295431" y="306.144" style="stroke: #000000; stroke-width: 0.8"/>
      </g>
     </g>
     <g id="text_5">
      <!-- 4 -->
      <g transform="translate(244.114181 320.742437) scale(0.1 -0.1)">
       <defs>
        <path id="DejaVuSans-34" d="M 2419 4116 
L 825 1625 
L 2419 1625 
L 2419 4116 
z
M 2253 4666 
L 3047 4666 
L 3047 1625 
L 3713 1625 
L 3713 1100 
L 3047 1100 
L 3047 0 
L 2419 0 
L 2419 1100 
L 313 1100 
L 313 1709 
L 2253 4666 
z
" transform="scale(0.015625)"/>
       </defs>
       <use xlink:href="#DejaVuSans-34"/>
      </g>
     </g>
    </g>
    <g id="xtick_6">
     <g id="line2d_11">
      <path d="M 294.356092 306.144 
L 294.356092 63.8784 
" clip-path="url(#p4b23bf7bdd)" style="fill: none; stroke: #b0b0b0; stroke-opacity: 0.22; stroke-width: 0.8; stroke-linecap: square"/>
     </g>
     <g id="line2d_12">
      <g>
       <use xlink:href="#md76043577d" x="294.356092" y="306.144" style="stroke: #000000; stroke-width: 0.8"/>
      </g>
     </g>
     <g id="text_6">
      <!-- 5 -->
      <g transform="translate(291.174842 320.742437) scale(0.1 -0.1)">
       <defs>
        <path id="DejaVuSans-35" d="M 691 4666 
L 3169 4666 
L 3169 4134 
L 1269 4134 
L 1269 2991 
Q 1406 3038 1543 3061 
Q 1681 3084 1819 3084 
Q 2600 3084 3056 2656 
Q 3513 2228 3513 1497 
Q 3513 744 3044 326 
Q 2575 -91 1722 -91 
Q 1428 -91 1123 -41 
Q 819 9 494 109 
L 494 744 
Q 775 591 1075 516 
Q 1375 441 1709 441 
Q 2250 441 2565 725 
Q 2881 1009 2881 1497 
Q 2881 1984 2565 2268 
Q 2250 2553 1709 2553 
Q 1456 2553 1204 2497 
Q 953 2441 691 2322 
L 691 4666 
z
" transform="scale(0.015625)"/>
       </defs>
       <use xlink:href="#DejaVuSans-35"/>
      </g>
     </g>
    </g>
    <g id="xtick_7">
     <g id="line2d_13">
      <path d="M 341.416753 306.144 
L 341.416753 63.8784 
" clip-path="url(#p4b23bf7bdd)" style="fill: none; stroke: #b0b0b0; stroke-opacity: 0.22; stroke-width: 0.8; stroke-linecap: square"/>
     </g>
     <g id="line2d_14">
      <g>
       <use xlink:href="#md76043577d" x="341.416753" y="306.144" style="stroke: #000000; stroke-width: 0.8"/>
      </g>
     </g>
     <g id="text_7">
      <!-- 6 -->
      <g transform="translate(338.235503 320.742437) scale(0.1 -0.1)">
       <defs>
        <path id="DejaVuSans-36" d="M 2113 2584 
Q 1688 2584 1439 2293 
Q 1191 2003 1191 1497 
Q 1191 994 1439 701 
Q 1688 409 2113 409 
Q 2538 409 2786 701 
Q 3034 994 3034 1497 
Q 3034 2003 2786 2293 
Q 2538 2584 2113 2584 
z
M 3366 4563 
L 3366 3988 
Q 3128 4100 2886 4159 
Q 2644 4219 2406 4219 
Q 1781 4219 1451 3797 
Q 1122 3375 1075 2522 
Q 1259 2794 1537 2939 
Q 1816 3084 2150 3084 
Q 2853 3084 3261 2657 
Q 3669 2231 3669 1497 
Q 3669 778 3244 343 
Q 2819 -91 2113 -91 
Q 1303 -91 875 529 
Q 447 1150 447 2328 
Q 447 3434 972 4092 
Q 1497 4750 2381 4750 
Q 2619 4750 2861 4703 
Q 3103 4656 3366 4563 
z
" transform="scale(0.015625)"/>
       </defs>
       <use xlink:href="#DejaVuSans-36"/>
      </g>
     </g>
    </g>
    <g id="xtick_8">
     <g id="line2d_15">
      <path d="M 388.477414 306.144 
L 388.477414 63.8784 
" clip-path="url(#p4b23bf7bdd)" style="fill: none; stroke: #b0b0b0; stroke-opacity: 0.22; stroke-width: 0.8; stroke-linecap: square"/>
     </g>
     <g id="line2d_16">
      <g>
       <use xlink:href="#md76043577d" x="388.477414" y="306.144" style="stroke: #000000; stroke-width: 0.8"/>
      </g>
     </g>
     <g id="text_8">
      <!-- 7 -->
      <g transform="translate(385.296164 320.742437) scale(0.1 -0.1)">
       <defs>
        <path id="DejaVuSans-37" d="M 525 4666 
L 3525 4666 
L 3525 4397 
L 1831 0 
L 1172 0 
L 2766 4134 
L 525 4134 
L 525 4666 
z
" transform="scale(0.015625)"/>
       </defs>
       <use xlink:href="#DejaVuSans-37"/>
      </g>
     </g>
    </g>
    <g id="xtick_9">
     <g id="line2d_17">
      <path d="M 435.538075 306.144 
L 435.538075 63.8784 
" clip-path="url(#p4b23bf7bdd)" style="fill: none; stroke: #b0b0b0; stroke-opacity: 0.22; stroke-width: 0.8; stroke-linecap: square"/>
     </g>
     <g id="line2d_18">
      <g>
       <use xlink:href="#md76043577d" x="435.538075" y="306.144" style="stroke: #000000; stroke-width: 0.8"/>
      </g>
     </g>
     <g id="text_9">
      <!-- 8 -->
      <g transform="translate(432.356825 320.742437) scale(0.1 -0.1)">
       <defs>
        <path id="DejaVuSans-38" d="M 2034 2216 
Q 1584 2216 1326 1975 
Q 1069 1734 1069 1313 
Q 1069 891 1326 650 
Q 1584 409 2034 409 
Q 2484 409 2743 651 
Q 3003 894 3003 1313 
Q 3003 1734 2745 1975 
Q 2488 2216 2034 2216 
z
M 1403 2484 
Q 997 2584 770 2862 
Q 544 3141 544 3541 
Q 544 4100 942 4425 
Q 1341 4750 2034 4750 
Q 2731 4750 3128 4425 
Q 3525 4100 3525 3541 
Q 3525 3141 3298 2862 
Q 3072 2584 2669 2484 
Q 3125 2378 3379 2068 
Q 3634 1759 3634 1313 
Q 3634 634 3220 271 
Q 2806 -91 2034 -91 
Q 1263 -91 848 271 
Q 434 634 434 1313 
Q 434 1759 690 2068 
Q 947 2378 1403 2484 
z
M 1172 3481 
Q 1172 3119 1398 2916 
Q 1625 2713 2034 2713 
Q 2441 2713 2670 2916 
Q 2900 3119 2900 3481 
Q 2900 3844 2670 4047 
Q 2441 4250 2034 4250 
Q 1625 4250 1398 4047 
Q 1172 3844 1172 3481 
z
" transform="scale(0.015625)"/>
       </defs>
       <use xlink:href="#DejaVuSans-38"/>
      </g>
     </g>
    </g>
    <g id="text_10">
     <!-- Position error distance -->
     <g transform="translate(194.31 334.420562) scale(0.1 -0.1)">
      <defs>
       <path id="DejaVuSans-50" d="M 1259 4147 
L 1259 2394 
L 2053 2394 
Q 2494 2394 2734 2622 
Q 2975 2850 2975 3272 
Q 2975 3691 2734 3919 
Q 2494 4147 2053 4147 
L 1259 4147 
z
M 628 4666 
L 2053 4666 
Q 2838 4666 3239 4311 
Q 3641 3956 3641 3272 
Q 3641 2581 3239 2228 
Q 2838 1875 2053 1875 
L 1259 1875 
L 1259 0 
L 628 0 
L 628 4666 
z
" transform="scale(0.015625)"/>
       <path id="DejaVuSans-6f" d="M 1959 3097 
Q 1497 3097 1228 2736 
Q 959 2375 959 1747 
Q 959 1119 1226 758 
Q 1494 397 1959 397 
Q 2419 397 2687 759 
Q 2956 1122 2956 1747 
Q 2956 2369 2687 2733 
Q 2419 3097 1959 3097 
z
M 1959 3584 
Q 2709 3584 3137 3096 
Q 3566 2609 3566 1747 
Q 3566 888 3137 398 
Q 2709 -91 1959 -91 
Q 1206 -91 779 398 
Q 353 888 353 1747 
Q 353 2609 779 3096 
Q 1206 3584 1959 3584 
z
" transform="scale(0.015625)"/>
       <path id="DejaVuSans-73" d="M 2834 3397 
L 2834 2853 
Q 2591 2978 2328 3040 
Q 2066 3103 1784 3103 
Q 1356 3103 1142 2972 
Q 928 2841 928 2578 
Q 928 2378 1081 2264 
Q 1234 2150 1697 2047 
L 1894 2003 
Q 2506 1872 2764 1633 
Q 3022 1394 3022 966 
Q 3022 478 2636 193 
Q 2250 -91 1575 -91 
Q 1294 -91 989 -36 
Q 684 19 347 128 
L 347 722 
Q 666 556 975 473 
Q 1284 391 1588 391 
Q 1994 391 2212 530 
Q 2431 669 2431 922 
Q 2431 1156 2273 1281 
Q 2116 1406 1581 1522 
L 1381 1569 
Q 847 1681 609 1914 
Q 372 2147 372 2553 
Q 372 3047 722 3315 
Q 1072 3584 1716 3584 
Q 2034 3584 2315 3537 
Q 2597 3491 2834 3397 
z
" transform="scale(0.015625)"/>
       <path id="DejaVuSans-69" d="M 603 3500 
L 1178 3500 
L 1178 0 
L 603 0 
L 603 3500 
z
M 603 4863 
L 1178 4863 
L 1178 4134 
L 603 4134 
L 603 4863 
z
" transform="scale(0.015625)"/>
       <path id="DejaVuSans-74" d="M 1172 4494 
L 1172 3500 
L 2356 3500 
L 2356 3053 
L 1172 3053 
L 1172 1153 
Q 1172 725 1289 603 
Q 1406 481 1766 481 
L 2356 481 
L 2356 0 
L 1766 0 
Q 1100 0 847 248 
Q 594 497 594 1153 
L 594 3053 
L 172 3053 
L 172 3500 
L 594 3500 
L 594 4494 
L 1172 4494 
z
" transform="scale(0.015625)"/>
       <path id="DejaVuSans-6e" d="M 3513 2113 
L 3513 0 
L 2938 0 
L 2938 2094 
Q 2938 2591 2744 2837 
Q 2550 3084 2163 3084 
Q 1697 3084 1428 2787 
Q 1159 2491 1159 1978 
L 1159 0 
L 581 0 
L 581 3500 
L 1159 3500 
L 1159 2956 
Q 1366 3272 1645 3428 
Q 1925 3584 2291 3584 
Q 2894 3584 3203 3211 
Q 3513 2838 3513 2113 
z
" transform="scale(0.015625)"/>
       <path id="DejaVuSans-20" transform="scale(0.015625)"/>
       <path id="DejaVuSans-65" d="M 3597 1894 
L 3597 1613 
L 953 1613 
Q 991 1019 1311 708 
Q 1631 397 2203 397 
Q 2534 397 2845 478 
Q 3156 559 3463 722 
L 3463 178 
Q 3153 47 2828 -22 
Q 2503 -91 2169 -91 
Q 1331 -91 842 396 
Q 353 884 353 1716 
Q 353 2575 817 3079 
Q 1281 3584 2069 3584 
Q 2775 3584 3186 3129 
Q 3597 2675 3597 1894 
z
M 3022 2063 
Q 3016 2534 2758 2815 
Q 2500 3097 2075 3097 
Q 1594 3097 1305 2825 
Q 1016 2553 972 2059 
L 3022 2063 
z
" transform="scale(0.015625)"/>
       <path id="DejaVuSans-72" d="M 2631 2963 
Q 2534 3019 2420 3045 
Q 2306 3072 2169 3072 
Q 1681 3072 1420 2755 
Q 1159 2438 1159 1844 
L 1159 0 
L 581 0 
L 581 3500 
L 1159 3500 
L 1159 2956 
Q 1341 3275 1631 3429 
Q 1922 3584 2338 3584 
Q 2397 3584 2469 3576 
Q 2541 3569 2628 3553 
L 2631 2963 
z
" transform="scale(0.015625)"/>
       <path id="DejaVuSans-64" d="M 2906 2969 
L 2906 4863 
L 3481 4863 
L 3481 0 
L 2906 0 
L 2906 525 
Q 2725 213 2448 61 
Q 2172 -91 1784 -91 
Q 1150 -91 751 415 
Q 353 922 353 1747 
Q 353 2572 751 3078 
Q 1150 3584 1784 3584 
Q 2172 3584 2448 3432 
Q 2725 3281 2906 2969 
z
M 947 1747 
Q 947 1113 1208 752 
Q 1469 391 1925 391 
Q 2381 391 2643 752 
Q 2906 1113 2906 1747 
Q 2906 2381 2643 2742 
Q 2381 3103 1925 3103 
Q 1469 3103 1208 2742 
Q 947 2381 947 1747 
z
" transform="scale(0.015625)"/>
       <path id="DejaVuSans-61" d="M 2194 1759 
Q 1497 1759 1228 1600 
Q 959 1441 959 1056 
Q 959 750 1161 570 
Q 1363 391 1709 391 
Q 2188 391 2477 730 
Q 2766 1069 2766 1631 
L 2766 1759 
L 2194 1759 
z
M 3341 1997 
L 3341 0 
L 2766 0 
L 2766 531 
Q 2569 213 2275 61 
Q 1981 -91 1556 -91 
Q 1019 -91 701 211 
Q 384 513 384 1019 
Q 384 1609 779 1909 
Q 1175 2209 1959 2209 
L 2766 2209 
L 2766 2266 
Q 2766 2663 2505 2880 
Q 2244 3097 1772 3097 
Q 1472 3097 1187 3025 
Q 903 2953 641 2809 
L 641 3341 
Q 956 3463 1253 3523 
Q 1550 3584 1831 3584 
Q 2591 3584 2966 3190 
Q 3341 2797 3341 1997 
z
" transform="scale(0.015625)"/>
       <path id="DejaVuSans-63" d="M 3122 3366 
L 3122 2828 
Q 2878 2963 2633 3030 
Q 2388 3097 2138 3097 
Q 1578 3097 1268 2742 
Q 959 2388 959 1747 
Q 959 1106 1268 751 
Q 1578 397 2138 397 
Q 2388 397 2633 464 
Q 2878 531 3122 666 
L 3122 134 
Q 2881 22 2623 -34 
Q 2366 -91 2075 -91 
Q 1284 -91 818 406 
Q 353 903 353 1747 
Q 353 2603 823 3093 
Q 1294 3584 2113 3584 
Q 2378 3584 2631 3529 
Q 2884 3475 3122 3366 
z
" transform="scale(0.015625)"/>
      </defs>
      <use xlink:href="#DejaVuSans-50"/>
      <use xlink:href="#DejaVuSans-6f" transform="translate(56.677734 0)"/>
      <use xlink:href="#DejaVuSans-73" transform="translate(117.859375 0)"/>
      <use xlink:href="#DejaVuSans-69" transform="translate(169.958984 0)"/>
      <use xlink:href="#DejaVuSans-74" transform="translate(197.742188 0)"/>
      <use xlink:href="#DejaVuSans-69" transform="translate(236.951172 0)"/>
      <use xlink:href="#DejaVuSans-6f" transform="translate(264.734375 0)"/>
      <use xlink:href="#DejaVuSans-6e" transform="translate(325.916016 0)"/>
      <use xlink:href="#DejaVuSans-20" transform="translate(389.294922 0)"/>
      <use xlink:href="#DejaVuSans-65" transform="translate(421.082031 0)"/>
      <use xlink:href="#DejaVuSans-72" transform="translate(482.605469 0)"/>
      <use xlink:href="#DejaVuSans-72" transform="translate(521.96875 0)"/>
      <use xlink:href="#DejaVuSans-6f" transform="translate(560.832031 0)"/>
      <use xlink:href="#DejaVuSans-72" transform="translate(622.013672 0)"/>
      <use xlink:href="#DejaVuSans-20" transform="translate(663.126953 0)"/>
      <use xlink:href="#DejaVuSans-64" transform="translate(694.914062 0)"/>
      <use xlink:href="#DejaVuSans-69" transform="translate(758.390625 0)"/>
      <use xlink:href="#DejaVuSans-73" transform="translate(786.173828 0)"/>
      <use xlink:href="#DejaVuSans-74" transform="translate(838.273438 0)"/>
      <use xlink:href="#DejaVuSans-61" transform="translate(877.482422 0)"/>
      <use xlink:href="#DejaVuSans-6e" transform="translate(938.761719 0)"/>
      <use xlink:href="#DejaVuSans-63" transform="translate(1002.140625 0)"/>
      <use xlink:href="#DejaVuSans-65" transform="translate(1057.121094 0)"/>
     </g>
    </g>
   </g>
   <g id="matplotlib.axis_2">
    <g id="ytick_1">
     <g id="line2d_19">
      <path d="M 43.78125 295.131927 
L 456.70125 295.131927 
" clip-path="url(#p4b23bf7bdd)" style="fill: none; stroke: #b0b0b0; stroke-opacity: 0.22; stroke-width: 0.8; stroke-linecap: square"/>
     </g>
     <g id="line2d_20">
      <defs>
       <path id="m16cf59c28f" d="M 0 0 
L -3.5 0 
" style="stroke: #000000; stroke-width: 0.8"/>
      </defs>
      <g>
       <use xlink:href="#m16cf59c28f" x="43.78125" y="295.131927" style="stroke: #000000; stroke-width: 0.8"/>
      </g>
     </g>
     <g id="text_11">
      <!-- 0.0 -->
      <g transform="translate(20.878125 298.931146) scale(0.1 -0.1)">
       <defs>
        <path id="DejaVuSans-2e" d="M 684 794 
L 1344 794 
L 1344 0 
L 684 0 
L 684 794 
z
" transform="scale(0.015625)"/>
       </defs>
       <use xlink:href="#DejaVuSans-30"/>
       <use xlink:href="#DejaVuSans-2e" transform="translate(63.623047 0)"/>
       <use xlink:href="#DejaVuSans-30" transform="translate(95.410156 0)"/>
      </g>
     </g>
    </g>
    <g id="ytick_2">
     <g id="line2d_21">
      <path d="M 43.78125 250.468348 
L 456.70125 250.468348 
" clip-path="url(#p4b23bf7bdd)" style="fill: none; stroke: #b0b0b0; stroke-opacity: 0.22; stroke-width: 0.8; stroke-linecap: square"/>
     </g>
     <g id="line2d_22">
      <g>
       <use xlink:href="#m16cf59c28f" x="43.78125" y="250.468348" style="stroke: #000000; stroke-width: 0.8"/>
      </g>
     </g>
     <g id="text_12">
      <!-- 0.2 -->
      <g transform="translate(20.878125 254.267567) scale(0.1 -0.1)">
       <use xlink:href="#DejaVuSans-30"/>
       <use xlink:href="#DejaVuSans-2e" transform="translate(63.623047 0)"/>
       <use xlink:href="#DejaVuSans-32" transform="translate(95.410156 0)"/>
      </g>
     </g>
    </g>
    <g id="ytick_3">
     <g id="line2d_23">
      <path d="M 43.78125 205.804769 
L 456.70125 205.804769 
" clip-path="url(#p4b23bf7bdd)" style="fill: none; stroke: #b0b0b0; stroke-opacity: 0.22; stroke-width: 0.8; stroke-linecap: square"/>
     </g>
     <g id="line2d_24">
      <g>
       <use xlink:href="#m16cf59c28f" x="43.78125" y="205.804769" style="stroke: #000000; stroke-width: 0.8"/>
      </g>
     </g>
     <g id="text_13">
      <!-- 0.4 -->
      <g transform="translate(20.878125 209.603987) scale(0.1 -0.1)">
       <use xlink:href="#DejaVuSans-30"/>
       <use xlink:href="#DejaVuSans-2e" transform="translate(63.623047 0)"/>
       <use xlink:href="#DejaVuSans-34" transform="translate(95.410156 0)"/>
      </g>
     </g>
    </g>
    <g id="ytick_4">
     <g id="line2d_25">
      <path d="M 43.78125 161.141189 
L 456.70125 161.141189 
" clip-path="url(#p4b23bf7bdd)" style="fill: none; stroke: #b0b0b0; stroke-opacity: 0.22; stroke-width: 0.8; stroke-linecap: square"/>
     </g>
     <g id="line2d_26">
      <g>
       <use xlink:href="#m16cf59c28f" x="43.78125" y="161.141189" style="stroke: #000000; stroke-width: 0.8"/>
      </g>
     </g>
     <g id="text_14">
      <!-- 0.6 -->
      <g transform="translate(20.878125 164.940408) scale(0.1 -0.1)">
       <use xlink:href="#DejaVuSans-30"/>
       <use xlink:href="#DejaVuSans-2e" transform="translate(63.623047 0)"/>
       <use xlink:href="#DejaVuSans-36" transform="translate(95.410156 0)"/>
      </g>
     </g>
    </g>
    <g id="ytick_5">
     <g id="line2d_27">
      <path d="M 43.78125 116.47761 
L 456.70125 116.47761 
" clip-path="url(#p4b23bf7bdd)" style="fill: none; stroke: #b0b0b0; stroke-opacity: 0.22; stroke-width: 0.8; stroke-linecap: square"/>
     </g>
     <g id="line2d_28">
      <g>
       <use xlink:href="#m16cf59c28f" x="43.78125" y="116.47761" style="stroke: #000000; stroke-width: 0.8"/>
      </g>
     </g>
     <g id="text_15">
      <!-- 0.8 -->
      <g transform="translate(20.878125 120.276829) scale(0.1 -0.1)">
       <use xlink:href="#DejaVuSans-30"/>
       <use xlink:href="#DejaVuSans-2e" transform="translate(63.623047 0)"/>
       <use xlink:href="#DejaVuSans-38" transform="translate(95.410156 0)"/>
      </g>
     </g>
    </g>
    <g id="ytick_6">
     <g id="line2d_29">
      <path d="M 43.78125 71.814031 
L 456.70125 71.814031 
" clip-path="url(#p4b23bf7bdd)" style="fill: none; stroke: #b0b0b0; stroke-opacity: 0.22; stroke-width: 0.8; stroke-linecap: square"/>
     </g>
     <g id="line2d_30">
      <g>
       <use xlink:href="#m16cf59c28f" x="43.78125" y="71.814031" style="stroke: #000000; stroke-width: 0.8"/>
      </g>
     </g>
     <g id="text_16">
      <!-- 1.0 -->
      <g transform="translate(20.878125 75.61325) scale(0.1 -0.1)">
       <use xlink:href="#DejaVuSans-31"/>
       <use xlink:href="#DejaVuSans-2e" transform="translate(63.623047 0)"/>
       <use xlink:href="#DejaVuSans-30" transform="translate(95.410156 0)"/>
      </g>
     </g>
    </g>
    <g id="text_17">
     <!-- Density -->
     <g transform="translate(14.798437 204.019794) rotate(-90) scale(0.1 -0.1)">
      <defs>
       <path id="DejaVuSans-44" d="M 1259 4147 
L 1259 519 
L 2022 519 
Q 2988 519 3436 956 
Q 3884 1394 3884 2338 
Q 3884 3275 3436 3711 
Q 2988 4147 2022 4147 
L 1259 4147 
z
M 628 4666 
L 1925 4666 
Q 3281 4666 3915 4102 
Q 4550 3538 4550 2338 
Q 4550 1131 3912 565 
Q 3275 0 1925 0 
L 628 0 
L 628 4666 
z
" transform="scale(0.015625)"/>
       <path id="DejaVuSans-79" d="M 2059 -325 
Q 1816 -950 1584 -1140 
Q 1353 -1331 966 -1331 
L 506 -1331 
L 506 -850 
L 844 -850 
Q 1081 -850 1212 -737 
Q 1344 -625 1503 -206 
L 1606 56 
L 191 3500 
L 800 3500 
L 1894 763 
L 2988 3500 
L 3597 3500 
L 2059 -325 
z
" transform="scale(0.015625)"/>
      </defs>
      <use xlink:href="#DejaVuSans-44"/>
      <use xlink:href="#DejaVuSans-65" transform="translate(77.001953 0)"/>
      <use xlink:href="#DejaVuSans-6e" transform="translate(138.525391 0)"/>
      <use xlink:href="#DejaVuSans-73" transform="translate(201.904297 0)"/>
      <use xlink:href="#DejaVuSans-69" transform="translate(254.003906 0)"/>
      <use xlink:href="#DejaVuSans-74" transform="translate(281.787109 0)"/>
      <use xlink:href="#DejaVuSans-79" transform="translate(320.996094 0)"/>
     </g>
    </g>
   </g>
   <g id="line2d_31">
    <path d="M 62.550341 175.776392 
L 68.912745 74.890473 
L 75.275148 76.807131 
L 81.637552 96.67068 
L 87.999956 128.20842 
L 94.362359 155.215877 
L 100.724763 195.117216 
L 107.087167 208.708065 
L 113.44957 222.647398 
L 119.811974 241.117014 
L 126.174378 246.518505 
L 132.536782 253.662413 
L 138.899185 264.639637 
L 145.261589 271.435062 
L 151.623993 274.39717 
L 157.986396 279.275936 
L 164.3488 281.541078 
L 170.711204 282.76077 
L 177.073607 285.200153 
L 183.436011 287.639536 
L 189.798415 285.548636 
L 196.160819 288.510744 
L 202.523222 290.253161 
L 208.885626 291.298611 
L 215.24803 292.692544 
L 221.610433 293.041027 
L 227.972837 292.692544 
L 234.335241 292.518302 
L 240.697644 293.737994 
L 247.060048 293.563752 
L 253.422452 293.389511 
L 259.784856 293.737994 
L 266.147259 294.609202 
L 272.509663 293.737994 
L 278.872067 294.260719 
L 285.23447 294.434961 
L 291.596874 294.957686 
L 297.959278 294.086477 
L 304.321681 294.609202 
L 310.684085 294.957686 
L 317.046489 294.434961 
L 323.408893 294.609202 
L 329.771296 294.434961 
L 336.1337 294.783444 
L 342.496104 294.783444 
L 348.858507 294.957686 
L 355.220911 294.434961 
L 361.583315 295.131927 
L 367.945718 294.783444 
L 374.308122 294.957686 
L 380.670526 294.783444 
L 387.03293 295.131927 
L 393.395333 295.131927 
L 399.757737 294.957686 
L 406.120141 295.131927 
L 412.482544 295.131927 
L 418.844948 294.957686 
L 425.207352 294.783444 
L 431.569755 294.957686 
L 437.932159 294.957686 
" clip-path="url(#p4b23bf7bdd)" style="fill: none; stroke: #2f6ba8; stroke-width: 2.2; stroke-linecap: square"/>
   </g>
   <g id="line2d_32">
    <path d="M 97.840705 306.144 
L 97.840705 63.8784 
" clip-path="url(#p4b23bf7bdd)" style="fill: none; stroke-dasharray: 6.66,2.88; stroke-dashoffset: 0; stroke: #d34d43; stroke-width: 1.8"/>
   </g>
   <g id="patch_3">
    <path d="M 43.78125 306.144 
L 43.78125 63.8784 
" style="fill: none; stroke: #000000; stroke-width: 0.8; stroke-linejoin: miter; stroke-linecap: square"/>
   </g>
   <g id="patch_4">
    <path d="M 456.70125 306.144 
L 456.70125 63.8784 
" style="fill: none; stroke: #000000; stroke-width: 0.8; stroke-linejoin: miter; stroke-linecap: square"/>
   </g>
   <g id="patch_5">
    <path d="M 43.78125 306.144 
L 456.70125 306.144 
" style="fill: none; stroke: #000000; stroke-width: 0.8; stroke-linejoin: miter; stroke-linecap: square"/>
   </g>
   <g id="patch_6">
    <path d="M 43.78125 63.8784 
L 456.70125 63.8784 
" style="fill: none; stroke: #000000; stroke-width: 0.8; stroke-linejoin: miter; stroke-linecap: square"/>
   </g>
   <g id="text_18">
    <!-- mean=0.82 -->
    <g style="fill: #d34d43" transform="translate(383.537694 84.349961) scale(0.11 -0.11)">
     <defs>
      <path id="DejaVuSans-6d" d="M 3328 2828 
Q 3544 3216 3844 3400 
Q 4144 3584 4550 3584 
Q 5097 3584 5394 3201 
Q 5691 2819 5691 2113 
L 5691 0 
L 5113 0 
L 5113 2094 
Q 5113 2597 4934 2840 
Q 4756 3084 4391 3084 
Q 3944 3084 3684 2787 
Q 3425 2491 3425 1978 
L 3425 0 
L 2847 0 
L 2847 2094 
Q 2847 2600 2669 2842 
Q 2491 3084 2119 3084 
Q 1678 3084 1418 2786 
Q 1159 2488 1159 1978 
L 1159 0 
L 581 0 
L 581 3500 
L 1159 3500 
L 1159 2956 
Q 1356 3278 1631 3431 
Q 1906 3584 2284 3584 
Q 2666 3584 2933 3390 
Q 3200 3197 3328 2828 
z
" transform="scale(0.015625)"/>
      <path id="DejaVuSans-3d" d="M 678 2906 
L 4684 2906 
L 4684 2381 
L 678 2381 
L 678 2906 
z
M 678 1631 
L 4684 1631 
L 4684 1100 
L 678 1100 
L 678 1631 
z
" transform="scale(0.015625)"/>
     </defs>
     <use xlink:href="#DejaVuSans-6d"/>
     <use xlink:href="#DejaVuSans-65" transform="translate(97.412109 0)"/>
     <use xlink:href="#DejaVuSans-61" transform="translate(158.935547 0)"/>
     <use xlink:href="#DejaVuSans-6e" transform="translate(220.214844 0)"/>
     <use xlink:href="#DejaVuSans-3d" transform="translate(283.59375 0)"/>
     <use xlink:href="#DejaVuSans-30" transform="translate(367.382812 0)"/>
     <use xlink:href="#DejaVuSans-2e" transform="translate(431.005859 0)"/>
     <use xlink:href="#DejaVuSans-38" transform="translate(462.792969 0)"/>
     <use xlink:href="#DejaVuSans-32" transform="translate(526.416016 0)"/>
    </g>
   </g>
  </g>
  <g id="text_19">
   <g id="patch_7">
    <path d="M 441.36125 20.1442 
L 468.6875 20.1442 
Q 475.8875 20.1442 475.8875 12.9442 
L 475.8875 14.2592 
Q 475.8875 7.0592 468.6875 7.0592 
L 441.36125 7.0592 
Q 434.16125 7.0592 434.16125 14.2592 
L 434.16125 12.9442 
Q 434.16125 20.1442 441.36125 20.1442 
z
" style="fill: #eef3f4; stroke: #d7e1e3; stroke-width: 0.8; stroke-linejoin: miter"/>
   </g>
   <!-- all_seeds -->
   <g style="fill: #4b5965" transform="translate(436.72125 15.69795) scale(0.08 -0.08)">
    <defs>
     <path id="DejaVuSans-6c" d="M 603 4863 
L 1178 4863 
L 1178 0 
L 603 0 
L 603 4863 
z
" transform="scale(0.015625)"/>
     <path id="DejaVuSans-5f" d="M 3263 -1063 
L 3263 -1509 
L -63 -1509 
L -63 -1063 
L 3263 -1063 
z
" transform="scale(0.015625)"/>
    </defs>
    <use xlink:href="#DejaVuSans-61"/>
    <use xlink:href="#DejaVuSans-6c" transform="translate(61.279297 0)"/>
    <use xlink:href="#DejaVuSans-6c" transform="translate(89.0625 0)"/>
    <use xlink:href="#DejaVuSans-5f" transform="translate(116.845703 0)"/>
    <use xlink:href="#DejaVuSans-73" transform="translate(166.845703 0)"/>
    <use xlink:href="#DejaVuSans-65" transform="translate(218.945312 0)"/>
    <use xlink:href="#DejaVuSans-65" transform="translate(280.46875 0)"/>
    <use xlink:href="#DejaVuSans-64" transform="translate(341.992188 0)"/>
    <use xlink:href="#DejaVuSans-73" transform="translate(405.46875 0)"/>
   </g>
  </g>
  <g id="text_20">
   <g id="patch_8">
    <path d="M 382.75325 19.9217 
L 405.16075 19.9217 
Q 412.36075 19.9217 412.36075 12.7217 
L 412.36075 14.2592 
Q 412.36075 7.0592 405.16075 7.0592 
L 382.75325 7.0592 
Q 375.55325 7.0592 375.55325 14.2592 
L 375.55325 12.7217 
Q 375.55325 19.9217 382.75325 19.9217 
z
" style="fill: #eef3f4; stroke: #d7e1e3; stroke-width: 0.8; stroke-linejoin: miter"/>
   </g>
   <!-- position -->
   <g style="fill: #4b5965" transform="translate(378.11325 15.69795) scale(0.08 -0.08)">
    <defs>
     <path id="DejaVuSans-70" d="M 1159 525 
L 1159 -1331 
L 581 -1331 
L 581 3500 
L 1159 3500 
L 1159 2969 
Q 1341 3281 1617 3432 
Q 1894 3584 2278 3584 
Q 2916 3584 3314 3078 
Q 3713 2572 3713 1747 
Q 3713 922 3314 415 
Q 2916 -91 2278 -91 
Q 1894 -91 1617 61 
Q 1341 213 1159 525 
z
M 3116 1747 
Q 3116 2381 2855 2742 
Q 2594 3103 2138 3103 
Q 1681 3103 1420 2742 
Q 1159 2381 1159 1747 
Q 1159 1113 1420 752 
Q 1681 391 2138 391 
Q 2594 391 2855 752 
Q 3116 1113 3116 1747 
z
" transform="scale(0.015625)"/>
    </defs>
    <use xlink:href="#DejaVuSans-70"/>
    <use xlink:href="#DejaVuSans-6f" transform="translate(63.476562 0)"/>
    <use xlink:href="#DejaVuSans-73" transform="translate(124.658203 0)"/>
    <use xlink:href="#DejaVuSans-69" transform="translate(176.757812 0)"/>
    <use xlink:href="#DejaVuSans-74" transform="translate(204.541016 0)"/>
    <use xlink:href="#DejaVuSans-69" transform="translate(243.75 0)"/>
    <use xlink:href="#DejaVuSans-6f" transform="translate(271.533203 0)"/>
    <use xlink:href="#DejaVuSans-6e" transform="translate(332.714844 0)"/>
   </g>
  </g>
  <g id="text_21">
   <g id="patch_9">
    <path d="M 352.11725 19.9217 
L 357.27475 19.9217 
Q 364.47475 19.9217 364.47475 12.7217 
L 364.47475 14.2592 
Q 364.47475 7.0592 357.27475 7.0592 
L 352.11725 7.0592 
Q 344.91725 7.0592 344.91725 14.2592 
L 344.91725 12.7217 
Q 344.91725 19.9217 352.11725 19.9217 
z
" style="fill: #eef3f4; stroke: #d7e1e3; stroke-width: 0.8; stroke-linejoin: miter"/>
   </g>
   <!-- FT2 -->
   <g style="fill: #4b5965" transform="translate(347.47725 15.69795) scale(0.08 -0.08)">
    <defs>
     <path id="DejaVuSans-46" d="M 628 4666 
L 3309 4666 
L 3309 4134 
L 1259 4134 
L 1259 2759 
L 3109 2759 
L 3109 2228 
L 1259 2228 
L 1259 0 
L 628 0 
L 628 4666 
z
" transform="scale(0.015625)"/>
     <path id="DejaVuSans-54" d="M -19 4666 
L 3928 4666 
L 3928 4134 
L 2272 4134 
L 2272 0 
L 1638 0 
L 1638 4134 
L -19 4134 
L -19 4666 
z
" transform="scale(0.015625)"/>
    </defs>
    <use xlink:href="#DejaVuSans-46"/>
    <use xlink:href="#DejaVuSans-54" transform="translate(55.769531 0)"/>
    <use xlink:href="#DejaVuSans-32" transform="translate(116.853516 0)"/>
   </g>
  </g>
  <g id="text_22">
   <!-- UWB Indoor Positioning and Tracking (FT2) -->
   <g style="fill: #17222b" transform="translate(19.80525 18.597656) scale(0.15 -0.15)">
    <defs>
     <path id="DejaVuSans-Bold-55" d="M 588 4666 
L 1791 4666 
L 1791 1869 
Q 1791 1291 1980 1042 
Q 2169 794 2597 794 
Q 3028 794 3217 1042 
Q 3406 1291 3406 1869 
L 3406 4666 
L 4609 4666 
L 4609 1869 
Q 4609 878 4112 393 
Q 3616 -91 2597 -91 
Q 1581 -91 1084 393 
Q 588 878 588 1869 
L 588 4666 
z
" transform="scale(0.015625)"/>
     <path id="DejaVuSans-Bold-57" d="M 191 4666 
L 1344 4666 
L 2150 1275 
L 2950 4666 
L 4109 4666 
L 4909 1275 
L 5716 4666 
L 6859 4666 
L 5759 0 
L 4372 0 
L 3525 3547 
L 2688 0 
L 1300 0 
L 191 4666 
z
" transform="scale(0.015625)"/>
     <path id="DejaVuSans-Bold-42" d="M 2456 2859 
Q 2741 2859 2887 2984 
Q 3034 3109 3034 3353 
Q 3034 3594 2887 3720 
Q 2741 3847 2456 3847 
L 1791 3847 
L 1791 2859 
L 2456 2859 
z
M 2497 819 
Q 2859 819 3042 972 
Q 3225 1125 3225 1434 
Q 3225 1738 3044 1889 
Q 2863 2041 2497 2041 
L 1791 2041 
L 1791 819 
L 2497 819 
z
M 3616 2497 
Q 4003 2384 4215 2081 
Q 4428 1778 4428 1338 
Q 4428 663 3972 331 
Q 3516 0 2584 0 
L 588 0 
L 588 4666 
L 2394 4666 
Q 3366 4666 3802 4372 
Q 4238 4078 4238 3431 
Q 4238 3091 4078 2852 
Q 3919 2613 3616 2497 
z
" transform="scale(0.015625)"/>
     <path id="DejaVuSans-Bold-20" transform="scale(0.015625)"/>
     <path id="DejaVuSans-Bold-49" d="M 588 4666 
L 1791 4666 
L 1791 0 
L 588 0 
L 588 4666 
z
" transform="scale(0.015625)"/>
     <path id="DejaVuSans-Bold-6e" d="M 4056 2131 
L 4056 0 
L 2931 0 
L 2931 347 
L 2931 1631 
Q 2931 2084 2911 2256 
Q 2891 2428 2841 2509 
Q 2775 2619 2662 2680 
Q 2550 2741 2406 2741 
Q 2056 2741 1856 2470 
Q 1656 2200 1656 1722 
L 1656 0 
L 538 0 
L 538 3500 
L 1656 3500 
L 1656 2988 
Q 1909 3294 2193 3439 
Q 2478 3584 2822 3584 
Q 3428 3584 3742 3212 
Q 4056 2841 4056 2131 
z
" transform="scale(0.015625)"/>
     <path id="DejaVuSans-Bold-64" d="M 2919 2988 
L 2919 4863 
L 4044 4863 
L 4044 0 
L 2919 0 
L 2919 506 
Q 2688 197 2409 53 
Q 2131 -91 1766 -91 
Q 1119 -91 703 423 
Q 288 938 288 1747 
Q 288 2556 703 3070 
Q 1119 3584 1766 3584 
Q 2128 3584 2408 3439 
Q 2688 3294 2919 2988 
z
M 2181 722 
Q 2541 722 2730 984 
Q 2919 1247 2919 1747 
Q 2919 2247 2730 2509 
Q 2541 2772 2181 2772 
Q 1825 2772 1636 2509 
Q 1447 2247 1447 1747 
Q 1447 1247 1636 984 
Q 1825 722 2181 722 
z
" transform="scale(0.015625)"/>
     <path id="DejaVuSans-Bold-6f" d="M 2203 2784 
Q 1831 2784 1636 2517 
Q 1441 2250 1441 1747 
Q 1441 1244 1636 976 
Q 1831 709 2203 709 
Q 2569 709 2762 976 
Q 2956 1244 2956 1747 
Q 2956 2250 2762 2517 
Q 2569 2784 2203 2784 
z
M 2203 3584 
Q 3106 3584 3614 3096 
Q 4122 2609 4122 1747 
Q 4122 884 3614 396 
Q 3106 -91 2203 -91 
Q 1297 -91 786 396 
Q 275 884 275 1747 
Q 275 2609 786 3096 
Q 1297 3584 2203 3584 
z
" transform="scale(0.015625)"/>
     <path id="DejaVuSans-Bold-72" d="M 3138 2547 
Q 2991 2616 2845 2648 
Q 2700 2681 2553 2681 
Q 2122 2681 1889 2404 
Q 1656 2128 1656 1613 
L 1656 0 
L 538 0 
L 538 3500 
L 1656 3500 
L 1656 2925 
Q 1872 3269 2151 3426 
Q 2431 3584 2822 3584 
Q 2878 3584 2943 3579 
Q 3009 3575 3134 3559 
L 3138 2547 
z
" transform="scale(0.015625)"/>
     <path id="DejaVuSans-Bold-50" d="M 588 4666 
L 2584 4666 
Q 3475 4666 3951 4270 
Q 4428 3875 4428 3144 
Q 4428 2409 3951 2014 
Q 3475 1619 2584 1619 
L 1791 1619 
L 1791 0 
L 588 0 
L 588 4666 
z
M 1791 3794 
L 1791 2491 
L 2456 2491 
Q 2806 2491 2997 2661 
Q 3188 2831 3188 3144 
Q 3188 3456 2997 3625 
Q 2806 3794 2456 3794 
L 1791 3794 
z
" transform="scale(0.015625)"/>
     <path id="DejaVuSans-Bold-73" d="M 3272 3391 
L 3272 2541 
Q 2913 2691 2578 2766 
Q 2244 2841 1947 2841 
Q 1628 2841 1473 2761 
Q 1319 2681 1319 2516 
Q 1319 2381 1436 2309 
Q 1553 2238 1856 2203 
L 2053 2175 
Q 2913 2066 3209 1816 
Q 3506 1566 3506 1031 
Q 3506 472 3093 190 
Q 2681 -91 1863 -91 
Q 1516 -91 1145 -36 
Q 775 19 384 128 
L 384 978 
Q 719 816 1070 734 
Q 1422 653 1784 653 
Q 2113 653 2278 743 
Q 2444 834 2444 1013 
Q 2444 1163 2330 1236 
Q 2216 1309 1875 1350 
L 1678 1375 
Q 931 1469 631 1722 
Q 331 1975 331 2491 
Q 331 3047 712 3315 
Q 1094 3584 1881 3584 
Q 2191 3584 2531 3537 
Q 2872 3491 3272 3391 
z
" transform="scale(0.015625)"/>
     <path id="DejaVuSans-Bold-69" d="M 538 3500 
L 1656 3500 
L 1656 0 
L 538 0 
L 538 3500 
z
M 538 4863 
L 1656 4863 
L 1656 3950 
L 538 3950 
L 538 4863 
z
" transform="scale(0.015625)"/>
     <path id="DejaVuSans-Bold-74" d="M 1759 4494 
L 1759 3500 
L 2913 3500 
L 2913 2700 
L 1759 2700 
L 1759 1216 
Q 1759 972 1856 886 
Q 1953 800 2241 800 
L 2816 800 
L 2816 0 
L 1856 0 
Q 1194 0 917 276 
Q 641 553 641 1216 
L 641 2700 
L 84 2700 
L 84 3500 
L 641 3500 
L 641 4494 
L 1759 4494 
z
" transform="scale(0.015625)"/>
     <path id="DejaVuSans-Bold-67" d="M 2919 594 
Q 2688 288 2409 144 
Q 2131 0 1766 0 
Q 1125 0 706 504 
Q 288 1009 288 1791 
Q 288 2575 706 3076 
Q 1125 3578 1766 3578 
Q 2131 3578 2409 3434 
Q 2688 3291 2919 2981 
L 2919 3500 
L 4044 3500 
L 4044 353 
Q 4044 -491 3511 -936 
Q 2978 -1381 1966 -1381 
Q 1638 -1381 1331 -1331 
Q 1025 -1281 716 -1178 
L 716 -306 
Q 1009 -475 1290 -558 
Q 1572 -641 1856 -641 
Q 2406 -641 2662 -400 
Q 2919 -159 2919 353 
L 2919 594 
z
M 2181 2772 
Q 1834 2772 1640 2515 
Q 1447 2259 1447 1791 
Q 1447 1309 1634 1061 
Q 1822 813 2181 813 
Q 2531 813 2725 1069 
Q 2919 1325 2919 1791 
Q 2919 2259 2725 2515 
Q 2531 2772 2181 2772 
z
" transform="scale(0.015625)"/>
     <path id="DejaVuSans-Bold-61" d="M 2106 1575 
Q 1756 1575 1579 1456 
Q 1403 1338 1403 1106 
Q 1403 894 1545 773 
Q 1688 653 1941 653 
Q 2256 653 2472 879 
Q 2688 1106 2688 1447 
L 2688 1575 
L 2106 1575 
z
M 3816 1997 
L 3816 0 
L 2688 0 
L 2688 519 
Q 2463 200 2181 54 
Q 1900 -91 1497 -91 
Q 953 -91 614 226 
Q 275 544 275 1050 
Q 275 1666 698 1953 
Q 1122 2241 2028 2241 
L 2688 2241 
L 2688 2328 
Q 2688 2594 2478 2717 
Q 2269 2841 1825 2841 
Q 1466 2841 1156 2769 
Q 847 2697 581 2553 
L 581 3406 
Q 941 3494 1303 3539 
Q 1666 3584 2028 3584 
Q 2975 3584 3395 3211 
Q 3816 2838 3816 1997 
z
" transform="scale(0.015625)"/>
     <path id="DejaVuSans-Bold-54" d="M 31 4666 
L 4331 4666 
L 4331 3756 
L 2784 3756 
L 2784 0 
L 1581 0 
L 1581 3756 
L 31 3756 
L 31 4666 
z
" transform="scale(0.015625)"/>
     <path id="DejaVuSans-Bold-63" d="M 3366 3391 
L 3366 2478 
Q 3138 2634 2908 2709 
Q 2678 2784 2431 2784 
Q 1963 2784 1702 2511 
Q 1441 2238 1441 1747 
Q 1441 1256 1702 982 
Q 1963 709 2431 709 
Q 2694 709 2930 787 
Q 3166 866 3366 1019 
L 3366 103 
Q 3103 6 2833 -42 
Q 2563 -91 2291 -91 
Q 1344 -91 809 395 
Q 275 881 275 1747 
Q 275 2613 809 3098 
Q 1344 3584 2291 3584 
Q 2566 3584 2833 3536 
Q 3100 3488 3366 3391 
z
" transform="scale(0.015625)"/>
     <path id="DejaVuSans-Bold-6b" d="M 538 4863 
L 1656 4863 
L 1656 2216 
L 2944 3500 
L 4244 3500 
L 2534 1894 
L 4378 0 
L 3022 0 
L 1656 1459 
L 1656 0 
L 538 0 
L 538 4863 
z
" transform="scale(0.015625)"/>
     <path id="DejaVuSans-Bold-28" d="M 2413 -844 
L 1484 -844 
Q 1006 -72 778 623 
Q 550 1319 550 2003 
Q 550 2688 779 3389 
Q 1009 4091 1484 4856 
L 2413 4856 
Q 2013 4116 1813 3408 
Q 1613 2700 1613 2009 
Q 1613 1319 1811 609 
Q 2009 -100 2413 -844 
z
" transform="scale(0.015625)"/>
     <path id="DejaVuSans-Bold-46" d="M 588 4666 
L 3834 4666 
L 3834 3756 
L 1791 3756 
L 1791 2888 
L 3713 2888 
L 3713 1978 
L 1791 1978 
L 1791 0 
L 588 0 
L 588 4666 
z
" transform="scale(0.015625)"/>
     <path id="DejaVuSans-Bold-32" d="M 1844 884 
L 3897 884 
L 3897 0 
L 506 0 
L 506 884 
L 2209 2388 
Q 2438 2594 2547 2791 
Q 2656 2988 2656 3200 
Q 2656 3528 2436 3728 
Q 2216 3928 1850 3928 
Q 1569 3928 1234 3808 
Q 900 3688 519 3450 
L 519 4475 
Q 925 4609 1322 4679 
Q 1719 4750 2100 4750 
Q 2938 4750 3402 4381 
Q 3866 4013 3866 3353 
Q 3866 2972 3669 2642 
Q 3472 2313 2841 1759 
L 1844 884 
z
" transform="scale(0.015625)"/>
     <path id="DejaVuSans-Bold-29" d="M 513 -844 
Q 913 -100 1113 609 
Q 1313 1319 1313 2009 
Q 1313 2700 1113 3408 
Q 913 4116 513 4856 
L 1441 4856 
Q 1916 4091 2145 3389 
Q 2375 2688 2375 2003 
Q 2375 1319 2147 623 
Q 1919 -72 1441 -844 
L 513 -844 
z
" transform="scale(0.015625)"/>
    </defs>
    <use xlink:href="#DejaVuSans-Bold-55"/>
    <use xlink:href="#DejaVuSans-Bold-57" transform="translate(81.201172 0)"/>
    <use xlink:href="#DejaVuSans-Bold-42" transform="translate(191.503906 0)"/>
    <use xlink:href="#DejaVuSans-Bold-20" transform="translate(267.724609 0)"/>
    <use xlink:href="#DejaVuSans-Bold-49" transform="translate(302.539062 0)"/>
    <use xlink:href="#DejaVuSans-Bold-6e" transform="translate(339.746094 0)"/>
    <use xlink:href="#DejaVuSans-Bold-64" transform="translate(410.9375 0)"/>
    <use xlink:href="#DejaVuSans-Bold-6f" transform="translate(482.519531 0)"/>
    <use xlink:href="#DejaVuSans-Bold-6f" transform="translate(551.220703 0)"/>
    <use xlink:href="#DejaVuSans-Bold-72" transform="translate(619.921875 0)"/>
    <use xlink:href="#DejaVuSans-Bold-20" transform="translate(669.238281 0)"/>
    <use xlink:href="#DejaVuSans-Bold-50" transform="translate(704.052734 0)"/>
    <use xlink:href="#DejaVuSans-Bold-6f" transform="translate(777.34375 0)"/>
    <use xlink:href="#DejaVuSans-Bold-73" transform="translate(846.044922 0)"/>
    <use xlink:href="#DejaVuSans-Bold-69" transform="translate(905.566406 0)"/>
    <use xlink:href="#DejaVuSans-Bold-74" transform="translate(939.84375 0)"/>
    <use xlink:href="#DejaVuSans-Bold-69" transform="translate(987.646484 0)"/>
    <use xlink:href="#DejaVuSans-Bold-6f" transform="translate(1021.923828 0)"/>
    <use xlink:href="#DejaVuSans-Bold-6e" transform="translate(1090.625 0)"/>
    <use xlink:href="#DejaVuSans-Bold-69" transform="translate(1161.816406 0)"/>
    <use xlink:href="#DejaVuSans-Bold-6e" transform="translate(1196.09375 0)"/>
    <use xlink:href="#DejaVuSans-Bold-67" transform="translate(1267.285156 0)"/>
    <use xlink:href="#DejaVuSans-Bold-20" transform="translate(1338.867188 0)"/>
    <use xlink:href="#DejaVuSans-Bold-61" transform="translate(1373.681641 0)"/>
    <use xlink:href="#DejaVuSans-Bold-6e" transform="translate(1441.162109 0)"/>
    <use xlink:href="#DejaVuSans-Bold-64" transform="translate(1512.353516 0)"/>
    <use xlink:href="#DejaVuSans-Bold-20" transform="translate(1583.935547 0)"/>
    <use xlink:href="#DejaVuSans-Bold-54" transform="translate(1618.75 0)"/>
    <use xlink:href="#DejaVuSans-Bold-72" transform="translate(1675.962891 0)"/>
    <use xlink:href="#DejaVuSans-Bold-61" transform="translate(1725.279297 0)"/>
    <use xlink:href="#DejaVuSans-Bold-63" transform="translate(1792.759766 0)"/>
    <use xlink:href="#DejaVuSans-Bold-6b" transform="translate(1852.037109 0)"/>
    <use xlink:href="#DejaVuSans-Bold-69" transform="translate(1918.541016 0)"/>
    <use xlink:href="#DejaVuSans-Bold-6e" transform="translate(1952.818359 0)"/>
    <use xlink:href="#DejaVuSans-Bold-67" transform="translate(2024.009766 0)"/>
    <use xlink:href="#DejaVuSans-Bold-20" transform="translate(2095.591797 0)"/>
    <use xlink:href="#DejaVuSans-Bold-28" transform="translate(2130.40625 0)"/>
    <use xlink:href="#DejaVuSans-Bold-46" transform="translate(2176.109375 0)"/>
    <use xlink:href="#DejaVuSans-Bold-54" transform="translate(2244.419922 0)"/>
    <use xlink:href="#DejaVuSans-Bold-32" transform="translate(2312.632812 0)"/>
    <use xlink:href="#DejaVuSans-Bold-29" transform="translate(2382.212891 0)"/>
   </g>
  </g>
  <g id="text_23">
   <!-- UWB Indoor Positioning -->
   <g style="fill: #6e7b86" transform="translate(19.80525 25.477716) scale(0.095 -0.095)">
    <defs>
     <path id="DejaVuSans-55" d="M 556 4666 
L 1191 4666 
L 1191 1831 
Q 1191 1081 1462 751 
Q 1734 422 2344 422 
Q 2950 422 3222 751 
Q 3494 1081 3494 1831 
L 3494 4666 
L 4128 4666 
L 4128 1753 
Q 4128 841 3676 375 
Q 3225 -91 2344 -91 
Q 1459 -91 1007 375 
Q 556 841 556 1753 
L 556 4666 
z
" transform="scale(0.015625)"/>
     <path id="DejaVuSans-57" d="M 213 4666 
L 850 4666 
L 1831 722 
L 2809 4666 
L 3519 4666 
L 4500 722 
L 5478 4666 
L 6119 4666 
L 4947 0 
L 4153 0 
L 3169 4050 
L 2175 0 
L 1381 0 
L 213 4666 
z
" transform="scale(0.015625)"/>
     <path id="DejaVuSans-42" d="M 1259 2228 
L 1259 519 
L 2272 519 
Q 2781 519 3026 730 
Q 3272 941 3272 1375 
Q 3272 1813 3026 2020 
Q 2781 2228 2272 2228 
L 1259 2228 
z
M 1259 4147 
L 1259 2741 
L 2194 2741 
Q 2656 2741 2882 2914 
Q 3109 3088 3109 3444 
Q 3109 3797 2882 3972 
Q 2656 4147 2194 4147 
L 1259 4147 
z
M 628 4666 
L 2241 4666 
Q 2963 4666 3353 4366 
Q 3744 4066 3744 3513 
Q 3744 3084 3544 2831 
Q 3344 2578 2956 2516 
Q 3422 2416 3680 2098 
Q 3938 1781 3938 1306 
Q 3938 681 3513 340 
Q 3088 0 2303 0 
L 628 0 
L 628 4666 
z
" transform="scale(0.015625)"/>
     <path id="DejaVuSans-49" d="M 628 4666 
L 1259 4666 
L 1259 0 
L 628 0 
L 628 4666 
z
" transform="scale(0.015625)"/>
     <path id="DejaVuSans-67" d="M 2906 1791 
Q 2906 2416 2648 2759 
Q 2391 3103 1925 3103 
Q 1463 3103 1205 2759 
Q 947 2416 947 1791 
Q 947 1169 1205 825 
Q 1463 481 1925 481 
Q 2391 481 2648 825 
Q 2906 1169 2906 1791 
z
M 3481 434 
Q 3481 -459 3084 -895 
Q 2688 -1331 1869 -1331 
Q 1566 -1331 1297 -1286 
Q 1028 -1241 775 -1147 
L 775 -588 
Q 1028 -725 1275 -790 
Q 1522 -856 1778 -856 
Q 2344 -856 2625 -561 
Q 2906 -266 2906 331 
L 2906 616 
Q 2728 306 2450 153 
Q 2172 0 1784 0 
Q 1141 0 747 490 
Q 353 981 353 1791 
Q 353 2603 747 3093 
Q 1141 3584 1784 3584 
Q 2172 3584 2450 3431 
Q 2728 3278 2906 2969 
L 2906 3500 
L 3481 3500 
L 3481 434 
z
" transform="scale(0.015625)"/>
    </defs>
    <use xlink:href="#DejaVuSans-55"/>
    <use xlink:href="#DejaVuSans-57" transform="translate(73.193359 0)"/>
    <use xlink:href="#DejaVuSans-42" transform="translate(172.070312 0)"/>
    <use xlink:href="#DejaVuSans-20" transform="translate(240.673828 0)"/>
    <use xlink:href="#DejaVuSans-49" transform="translate(272.460938 0)"/>
    <use xlink:href="#DejaVuSans-6e" transform="translate(301.953125 0)"/>
    <use xlink:href="#DejaVuSans-64" transform="translate(365.332031 0)"/>
    <use xlink:href="#DejaVuSans-6f" transform="translate(428.808594 0)"/>
    <use xlink:href="#DejaVuSans-6f" transform="translate(489.990234 0)"/>
    <use xlink:href="#DejaVuSans-72" transform="translate(551.171875 0)"/>
    <use xlink:href="#DejaVuSans-20" transform="translate(592.285156 0)"/>
    <use xlink:href="#DejaVuSans-50" transform="translate(624.072266 0)"/>
    <use xlink:href="#DejaVuSans-6f" transform="translate(680.75 0)"/>
    <use xlink:href="#DejaVuSans-73" transform="translate(741.931641 0)"/>
    <use xlink:href="#DejaVuSans-69" transform="translate(794.03125 0)"/>
    <use xlink:href="#DejaVuSans-74" transform="translate(821.814453 0)"/>
    <use xlink:href="#DejaVuSans-69" transform="translate(861.023438 0)"/>
    <use xlink:href="#DejaVuSans-6f" transform="translate(888.806641 0)"/>
    <use xlink:href="#DejaVuSans-6e" transform="translate(949.988281 0)"/>
    <use xlink:href="#DejaVuSans-69" transform="translate(1013.367188 0)"/>
    <use xlink:href="#DejaVuSans-6e" transform="translate(1041.150391 0)"/>
    <use xlink:href="#DejaVuSans-67" transform="translate(1104.529297 0)"/>
   </g>
  </g>
  <g id="text_24">
   <!-- Dataset protocol -->
   <g style="fill: #2f6e9f" transform="translate(19.80525 35.161856) scale(0.086 -0.086)">
    <use xlink:href="#DejaVuSans-44"/>
    <use xlink:href="#DejaVuSans-61" transform="translate(77.001953 0)"/>
    <use xlink:href="#DejaVuSans-74" transform="translate(138.28125 0)"/>
    <use xlink:href="#DejaVuSans-61" transform="translate(177.490234 0)"/>
    <use xlink:href="#DejaVuSans-73" transform="translate(238.769531 0)"/>
    <use xlink:href="#DejaVuSans-65" transform="translate(290.869141 0)"/>
    <use xlink:href="#DejaVuSans-74" transform="translate(352.392578 0)"/>
    <use xlink:href="#DejaVuSans-20" transform="translate(391.601562 0)"/>
    <use xlink:href="#DejaVuSans-70" transform="translate(423.388672 0)"/>
    <use xlink:href="#DejaVuSans-72" transform="translate(486.865234 0)"/>
    <use xlink:href="#DejaVuSans-6f" transform="translate(525.728516 0)"/>
    <use xlink:href="#DejaVuSans-74" transform="translate(586.910156 0)"/>
    <use xlink:href="#DejaVuSans-6f" transform="translate(626.119141 0)"/>
    <use xlink:href="#DejaVuSans-63" transform="translate(687.300781 0)"/>
    <use xlink:href="#DejaVuSans-6f" transform="translate(742.28125 0)"/>
    <use xlink:href="#DejaVuSans-6c" transform="translate(803.462891 0)"/>
   </g>
  </g>
  <g id="text_25">
   <!-- Local  Mean error: 0.82    Median error: 0.60    P90 error: 1.71    Test samples: 3160 (20% split) -->
   <g style="fill: #28333c" transform="translate(19.80525 45.184256) scale(0.086 -0.086)">
    <defs>
     <path id="DejaVuSans-4c" d="M 628 4666 
L 1259 4666 
L 1259 531 
L 3531 531 
L 3531 0 
L 628 0 
L 628 4666 
z
" transform="scale(0.015625)"/>
     <path id="DejaVuSans-4d" d="M 628 4666 
L 1569 4666 
L 2759 1491 
L 3956 4666 
L 4897 4666 
L 4897 0 
L 4281 0 
L 4281 4097 
L 3078 897 
L 2444 897 
L 1241 4097 
L 1241 0 
L 628 0 
L 628 4666 
z
" transform="scale(0.015625)"/>
     <path id="DejaVuSans-3a" d="M 750 794 
L 1409 794 
L 1409 0 
L 750 0 
L 750 794 
z
M 750 3309 
L 1409 3309 
L 1409 2516 
L 750 2516 
L 750 3309 
z
" transform="scale(0.015625)"/>
     <path id="DejaVuSans-39" d="M 703 97 
L 703 672 
Q 941 559 1184 500 
Q 1428 441 1663 441 
Q 2288 441 2617 861 
Q 2947 1281 2994 2138 
Q 2813 1869 2534 1725 
Q 2256 1581 1919 1581 
Q 1219 1581 811 2004 
Q 403 2428 403 3163 
Q 403 3881 828 4315 
Q 1253 4750 1959 4750 
Q 2769 4750 3195 4129 
Q 3622 3509 3622 2328 
Q 3622 1225 3098 567 
Q 2575 -91 1691 -91 
Q 1453 -91 1209 -44 
Q 966 3 703 97 
z
M 1959 2075 
Q 2384 2075 2632 2365 
Q 2881 2656 2881 3163 
Q 2881 3666 2632 3958 
Q 2384 4250 1959 4250 
Q 1534 4250 1286 3958 
Q 1038 3666 1038 3163 
Q 1038 2656 1286 2365 
Q 1534 2075 1959 2075 
z
" transform="scale(0.015625)"/>
     <path id="DejaVuSans-28" d="M 1984 4856 
Q 1566 4138 1362 3434 
Q 1159 2731 1159 2009 
Q 1159 1288 1364 580 
Q 1569 -128 1984 -844 
L 1484 -844 
Q 1016 -109 783 600 
Q 550 1309 550 2009 
Q 550 2706 781 3412 
Q 1013 4119 1484 4856 
L 1984 4856 
z
" transform="scale(0.015625)"/>
     <path id="DejaVuSans-25" d="M 4653 2053 
Q 4381 2053 4226 1822 
Q 4072 1591 4072 1178 
Q 4072 772 4226 539 
Q 4381 306 4653 306 
Q 4919 306 5073 539 
Q 5228 772 5228 1178 
Q 5228 1588 5073 1820 
Q 4919 2053 4653 2053 
z
M 4653 2450 
Q 5147 2450 5437 2106 
Q 5728 1763 5728 1178 
Q 5728 594 5436 251 
Q 5144 -91 4653 -91 
Q 4153 -91 3862 251 
Q 3572 594 3572 1178 
Q 3572 1766 3864 2108 
Q 4156 2450 4653 2450 
z
M 1428 4353 
Q 1159 4353 1004 4120 
Q 850 3888 850 3481 
Q 850 3069 1003 2837 
Q 1156 2606 1428 2606 
Q 1700 2606 1854 2837 
Q 2009 3069 2009 3481 
Q 2009 3884 1853 4118 
Q 1697 4353 1428 4353 
z
M 4250 4750 
L 4750 4750 
L 1831 -91 
L 1331 -91 
L 4250 4750 
z
M 1428 4750 
Q 1922 4750 2215 4408 
Q 2509 4066 2509 3481 
Q 2509 2891 2217 2550 
Q 1925 2209 1428 2209 
Q 931 2209 642 2551 
Q 353 2894 353 3481 
Q 353 4063 643 4406 
Q 934 4750 1428 4750 
z
" transform="scale(0.015625)"/>
     <path id="DejaVuSans-29" d="M 513 4856 
L 1013 4856 
Q 1481 4119 1714 3412 
Q 1947 2706 1947 2009 
Q 1947 1309 1714 600 
Q 1481 -109 1013 -844 
L 513 -844 
Q 928 -128 1133 580 
Q 1338 1288 1338 2009 
Q 1338 2731 1133 3434 
Q 928 4138 513 4856 
z
" transform="scale(0.015625)"/>
    </defs>
    <use xlink:href="#DejaVuSans-4c"/>
    <use xlink:href="#DejaVuSans-6f" transform="translate(53.962891 0)"/>
    <use xlink:href="#DejaVuSans-63" transform="translate(115.144531 0)"/>
    <use xlink:href="#DejaVuSans-61" transform="translate(170.125 0)"/>
    <use xlink:href="#DejaVuSans-6c" transform="translate(231.404297 0)"/>
    <use xlink:href="#DejaVuSans-20" transform="translate(259.1875 0)"/>
    <use xlink:href="#DejaVuSans-20" transform="translate(290.974609 0)"/>
    <use xlink:href="#DejaVuSans-4d" transform="translate(322.761719 0)"/>
    <use xlink:href="#DejaVuSans-65" transform="translate(409.041016 0)"/>
    <use xlink:href="#DejaVuSans-61" transform="translate(470.564453 0)"/>
    <use xlink:href="#DejaVuSans-6e" transform="translate(531.84375 0)"/>
    <use xlink:href="#DejaVuSans-20" transform="translate(595.222656 0)"/>
    <use xlink:href="#DejaVuSans-65" transform="translate(627.009766 0)"/>
    <use xlink:href="#DejaVuSans-72" transform="translate(688.533203 0)"/>
    <use xlink:href="#DejaVuSans-72" transform="translate(727.896484 0)"/>
    <use xlink:href="#DejaVuSans-6f" transform="translate(766.759766 0)"/>
    <use xlink:href="#DejaVuSans-72" transform="translate(827.941406 0)"/>
    <use xlink:href="#DejaVuSans-3a" transform="translate(867.304688 0)"/>
    <use xlink:href="#DejaVuSans-20" transform="translate(900.996094 0)"/>
    <use xlink:href="#DejaVuSans-30" transform="translate(932.783203 0)"/>
    <use xlink:href="#DejaVuSans-2e" transform="translate(996.40625 0)"/>
    <use xlink:href="#DejaVuSans-38" transform="translate(1028.193359 0)"/>
    <use xlink:href="#DejaVuSans-32" transform="translate(1091.816406 0)"/>
    <use xlink:href="#DejaVuSans-20" transform="translate(1155.439453 0)"/>
    <use xlink:href="#DejaVuSans-20" transform="translate(1187.226562 0)"/>
    <use xlink:href="#DejaVuSans-20" transform="translate(1219.013672 0)"/>
    <use xlink:href="#DejaVuSans-20" transform="translate(1250.800781 0)"/>
    <use xlink:href="#DejaVuSans-4d" transform="translate(1282.587891 0)"/>
    <use xlink:href="#DejaVuSans-65" transform="translate(1368.867188 0)"/>
    <use xlink:href="#DejaVuSans-64" transform="translate(1430.390625 0)"/>
    <use xlink:href="#DejaVuSans-69" transform="translate(1493.867188 0)"/>
    <use xlink:href="#DejaVuSans-61" transform="translate(1521.650391 0)"/>
    <use xlink:href="#DejaVuSans-6e" transform="translate(1582.929688 0)"/>
    <use xlink:href="#DejaVuSans-20" transform="translate(1646.308594 0)"/>
    <use xlink:href="#DejaVuSans-65" transform="translate(1678.095703 0)"/>
    <use xlink:href="#DejaVuSans-72" transform="translate(1739.619141 0)"/>
    <use xlink:href="#DejaVuSans-72" transform="translate(1778.982422 0)"/>
    <use xlink:href="#DejaVuSans-6f" transform="translate(1817.845703 0)"/>
    <use xlink:href="#DejaVuSans-72" transform="translate(1879.027344 0)"/>
    <use xlink:href="#DejaVuSans-3a" transform="translate(1918.390625 0)"/>
    <use xlink:href="#DejaVuSans-20" transform="translate(1952.082031 0)"/>
    <use xlink:href="#DejaVuSans-30" transform="translate(1983.869141 0)"/>
    <use xlink:href="#DejaVuSans-2e" transform="translate(2047.492188 0)"/>
    <use xlink:href="#DejaVuSans-36" transform="translate(2079.279297 0)"/>
    <use xlink:href="#DejaVuSans-30" transform="translate(2142.902344 0)"/>
    <use xlink:href="#DejaVuSans-20" transform="translate(2206.525391 0)"/>
    <use xlink:href="#DejaVuSans-20" transform="translate(2238.3125 0)"/>
    <use xlink:href="#DejaVuSans-20" transform="translate(2270.099609 0)"/>
    <use xlink:href="#DejaVuSans-20" transform="translate(2301.886719 0)"/>
    <use xlink:href="#DejaVuSans-50" transform="translate(2333.673828 0)"/>
    <use xlink:href="#DejaVuSans-39" transform="translate(2393.976562 0)"/>
    <use xlink:href="#DejaVuSans-30" transform="translate(2457.599609 0)"/>
    <use xlink:href="#DejaVuSans-20" transform="translate(2521.222656 0)"/>
    <use xlink:href="#DejaVuSans-65" transform="translate(2553.009766 0)"/>
    <use xlink:href="#DejaVuSans-72" transform="translate(2614.533203 0)"/>
    <use xlink:href="#DejaVuSans-72" transform="translate(2653.896484 0)"/>
    <use xlink:href="#DejaVuSans-6f" transform="translate(2692.759766 0)"/>
    <use xlink:href="#DejaVuSans-72" transform="translate(2753.941406 0)"/>
    <use xlink:href="#DejaVuSans-3a" transform="translate(2793.304688 0)"/>
    <use xlink:href="#DejaVuSans-20" transform="translate(2826.996094 0)"/>
    <use xlink:href="#DejaVuSans-31" transform="translate(2858.783203 0)"/>
    <use xlink:href="#DejaVuSans-2e" transform="translate(2922.40625 0)"/>
    <use xlink:href="#DejaVuSans-37" transform="translate(2954.193359 0)"/>
    <use xlink:href="#DejaVuSans-31" transform="translate(3017.816406 0)"/>
    <use xlink:href="#DejaVuSans-20" transform="translate(3081.439453 0)"/>
    <use xlink:href="#DejaVuSans-20" transform="translate(3113.226562 0)"/>
    <use xlink:href="#DejaVuSans-20" transform="translate(3145.013672 0)"/>
    <use xlink:href="#DejaVuSans-20" transform="translate(3176.800781 0)"/>
    <use xlink:href="#DejaVuSans-54" transform="translate(3208.587891 0)"/>
    <use xlink:href="#DejaVuSans-65" transform="translate(3252.671875 0)"/>
    <use xlink:href="#DejaVuSans-73" transform="translate(3314.195312 0)"/>
    <use xlink:href="#DejaVuSans-74" transform="translate(3366.294922 0)"/>
    <use xlink:href="#DejaVuSans-20" transform="translate(3405.503906 0)"/>
    <use xlink:href="#DejaVuSans-73" transform="translate(3437.291016 0)"/>
    <use xlink:href="#DejaVuSans-61" transform="translate(3489.390625 0)"/>
    <use xlink:href="#DejaVuSans-6d" transform="translate(3550.669922 0)"/>
    <use xlink:href="#DejaVuSans-70" transform="translate(3648.082031 0)"/>
    <use xlink:href="#DejaVuSans-6c" transform="translate(3711.558594 0)"/>
    <use xlink:href="#DejaVuSans-65" transform="translate(3739.341797 0)"/>
    <use xlink:href="#DejaVuSans-73" transform="translate(3800.865234 0)"/>
    <use xlink:href="#DejaVuSans-3a" transform="translate(3852.964844 0)"/>
    <use xlink:href="#DejaVuSans-20" transform="translate(3886.65625 0)"/>
    <use xlink:href="#DejaVuSans-33" transform="translate(3918.443359 0)"/>
    <use xlink:href="#DejaVuSans-31" transform="translate(3982.066406 0)"/>
    <use xlink:href="#DejaVuSans-36" transform="translate(4045.689453 0)"/>
    <use xlink:href="#DejaVuSans-30" transform="translate(4109.3125 0)"/>
    <use xlink:href="#DejaVuSans-20" transform="translate(4172.935547 0)"/>
    <use xlink:href="#DejaVuSans-28" transform="translate(4204.722656 0)"/>
    <use xlink:href="#DejaVuSans-32" transform="translate(4243.736328 0)"/>
    <use xlink:href="#DejaVuSans-30" transform="translate(4307.359375 0)"/>
    <use xlink:href="#DejaVuSans-25" transform="translate(4370.982422 0)"/>
    <use xlink:href="#DejaVuSans-20" transform="translate(4466.001953 0)"/>
    <use xlink:href="#DejaVuSans-73" transform="translate(4497.789062 0)"/>
    <use xlink:href="#DejaVuSans-70" transform="translate(4549.888672 0)"/>
    <use xlink:href="#DejaVuSans-6c" transform="translate(4613.365234 0)"/>
    <use xlink:href="#DejaVuSans-69" transform="translate(4641.148438 0)"/>
    <use xlink:href="#DejaVuSans-74" transform="translate(4668.931641 0)"/>
    <use xlink:href="#DejaVuSans-29" transform="translate(4708.140625 0)"/>
   </g>
  </g>
  <g id="text_26">
   <!-- Official  Mean error: 0.83    Median error: 0.62    P90 error: 1.66    Test samples: 3160 (20% split) -->
   <g style="fill: #55636e" transform="translate(19.80525 55.206656) scale(0.086 -0.086)">
    <defs>
     <path id="DejaVuSans-4f" d="M 2522 4238 
Q 1834 4238 1429 3725 
Q 1025 3213 1025 2328 
Q 1025 1447 1429 934 
Q 1834 422 2522 422 
Q 3209 422 3611 934 
Q 4013 1447 4013 2328 
Q 4013 3213 3611 3725 
Q 3209 4238 2522 4238 
z
M 2522 4750 
Q 3503 4750 4090 4092 
Q 4678 3434 4678 2328 
Q 4678 1225 4090 567 
Q 3503 -91 2522 -91 
Q 1538 -91 948 565 
Q 359 1222 359 2328 
Q 359 3434 948 4092 
Q 1538 4750 2522 4750 
z
" transform="scale(0.015625)"/>
     <path id="DejaVuSans-66" d="M 2375 4863 
L 2375 4384 
L 1825 4384 
Q 1516 4384 1395 4259 
Q 1275 4134 1275 3809 
L 1275 3500 
L 2222 3500 
L 2222 3053 
L 1275 3053 
L 1275 0 
L 697 0 
L 697 3053 
L 147 3053 
L 147 3500 
L 697 3500 
L 697 3744 
Q 697 4328 969 4595 
Q 1241 4863 1831 4863 
L 2375 4863 
z
" transform="scale(0.015625)"/>
    </defs>
    <use xlink:href="#DejaVuSans-4f"/>
    <use xlink:href="#DejaVuSans-66" transform="translate(78.710938 0)"/>
    <use xlink:href="#DejaVuSans-66" transform="translate(113.916016 0)"/>
    <use xlink:href="#DejaVuSans-69" transform="translate(149.121094 0)"/>
    <use xlink:href="#DejaVuSans-63" transform="translate(176.904297 0)"/>
    <use xlink:href="#DejaVuSans-69" transform="translate(231.884766 0)"/>
    <use xlink:href="#DejaVuSans-61" transform="translate(259.667969 0)"/>
    <use xlink:href="#DejaVuSans-6c" transform="translate(320.947266 0)"/>
    <use xlink:href="#DejaVuSans-20" transform="translate(348.730469 0)"/>
    <use xlink:href="#DejaVuSans-20" transform="translate(380.517578 0)"/>
    <use xlink:href="#DejaVuSans-4d" transform="translate(412.304688 0)"/>
    <use xlink:href="#DejaVuSans-65" transform="translate(498.583984 0)"/>
    <use xlink:href="#DejaVuSans-61" transform="translate(560.107422 0)"/>
    <use xlink:href="#DejaVuSans-6e" transform="translate(621.386719 0)"/>
    <use xlink:href="#DejaVuSans-20" transform="translate(684.765625 0)"/>
    <use xlink:href="#DejaVuSans-65" transform="translate(716.552734 0)"/>
    <use xlink:href="#DejaVuSans-72" transform="translate(778.076172 0)"/>
    <use xlink:href="#DejaVuSans-72" transform="translate(817.439453 0)"/>
    <use xlink:href="#DejaVuSans-6f" transform="translate(856.302734 0)"/>
    <use xlink:href="#DejaVuSans-72" transform="translate(917.484375 0)"/>
    <use xlink:href="#DejaVuSans-3a" transform="translate(956.847656 0)"/>
    <use xlink:href="#DejaVuSans-20" transform="translate(990.539062 0)"/>
    <use xlink:href="#DejaVuSans-30" transform="translate(1022.326172 0)"/>
    <use xlink:href="#DejaVuSans-2e" transform="translate(1085.949219 0)"/>
    <use xlink:href="#DejaVuSans-38" transform="translate(1117.736328 0)"/>
    <use xlink:href="#DejaVuSans-33" transform="translate(1181.359375 0)"/>
    <use xlink:href="#DejaVuSans-20" transform="translate(1244.982422 0)"/>
    <use xlink:href="#DejaVuSans-20" transform="translate(1276.769531 0)"/>
    <use xlink:href="#DejaVuSans-20" transform="translate(1308.556641 0)"/>
    <use xlink:href="#DejaVuSans-20" transform="translate(1340.34375 0)"/>
    <use xlink:href="#DejaVuSans-4d" transform="translate(1372.130859 0)"/>
    <use xlink:href="#DejaVuSans-65" transform="translate(1458.410156 0)"/>
    <use xlink:href="#DejaVuSans-64" transform="translate(1519.933594 0)"/>
    <use xlink:href="#DejaVuSans-69" transform="translate(1583.410156 0)"/>
    <use xlink:href="#DejaVuSans-61" transform="translate(1611.193359 0)"/>
    <use xlink:href="#DejaVuSans-6e" transform="translate(1672.472656 0)"/>
    <use xlink:href="#DejaVuSans-20" transform="translate(1735.851562 0)"/>
    <use xlink:href="#DejaVuSans-65" transform="translate(1767.638672 0)"/>
    <use xlink:href="#DejaVuSans-72" transform="translate(1829.162109 0)"/>
    <use xlink:href="#DejaVuSans-72" transform="translate(1868.525391 0)"/>
    <use xlink:href="#DejaVuSans-6f" transform="translate(1907.388672 0)"/>
    <use xlink:href="#DejaVuSans-72" transform="translate(1968.570312 0)"/>
    <use xlink:href="#DejaVuSans-3a" transform="translate(2007.933594 0)"/>
    <use xlink:href="#DejaVuSans-20" transform="translate(2041.625 0)"/>
    <use xlink:href="#DejaVuSans-30" transform="translate(2073.412109 0)"/>
    <use xlink:href="#DejaVuSans-2e" transform="translate(2137.035156 0)"/>
    <use xlink:href="#DejaVuSans-36" transform="translate(2168.822266 0)"/>
    <use xlink:href="#DejaVuSans-32" transform="translate(2232.445312 0)"/>
    <use xlink:href="#DejaVuSans-20" transform="translate(2296.068359 0)"/>
    <use xlink:href="#DejaVuSans-20" transform="translate(2327.855469 0)"/>
    <use xlink:href="#DejaVuSans-20" transform="translate(2359.642578 0)"/>
    <use xlink:href="#DejaVuSans-20" transform="translate(2391.429688 0)"/>
    <use xlink:href="#DejaVuSans-50" transform="translate(2423.216797 0)"/>
    <use xlink:href="#DejaVuSans-39" transform="translate(2483.519531 0)"/>
    <use xlink:href="#DejaVuSans-30" transform="translate(2547.142578 0)"/>
    <use xlink:href="#DejaVuSans-20" transform="translate(2610.765625 0)"/>
    <use xlink:href="#DejaVuSans-65" transform="translate(2642.552734 0)"/>
    <use xlink:href="#DejaVuSans-72" transform="translate(2704.076172 0)"/>
    <use xlink:href="#DejaVuSans-72" transform="translate(2743.439453 0)"/>
    <use xlink:href="#DejaVuSans-6f" transform="translate(2782.302734 0)"/>
    <use xlink:href="#DejaVuSans-72" transform="translate(2843.484375 0)"/>
    <use xlink:href="#DejaVuSans-3a" transform="translate(2882.847656 0)"/>
    <use xlink:href="#DejaVuSans-20" transform="translate(2916.539062 0)"/>
    <use xlink:href="#DejaVuSans-31" transform="translate(2948.326172 0)"/>
    <use xlink:href="#DejaVuSans-2e" transform="translate(3011.949219 0)"/>
    <use xlink:href="#DejaVuSans-36" transform="translate(3043.736328 0)"/>
    <use xlink:href="#DejaVuSans-36" transform="translate(3107.359375 0)"/>
    <use xlink:href="#DejaVuSans-20" transform="translate(3170.982422 0)"/>
    <use xlink:href="#DejaVuSans-20" transform="translate(3202.769531 0)"/>
    <use xlink:href="#DejaVuSans-20" transform="translate(3234.556641 0)"/>
    <use xlink:href="#DejaVuSans-20" transform="translate(3266.34375 0)"/>
    <use xlink:href="#DejaVuSans-54" transform="translate(3298.130859 0)"/>
    <use xlink:href="#DejaVuSans-65" transform="translate(3342.214844 0)"/>
    <use xlink:href="#DejaVuSans-73" transform="translate(3403.738281 0)"/>
    <use xlink:href="#DejaVuSans-74" transform="translate(3455.837891 0)"/>
    <use xlink:href="#DejaVuSans-20" transform="translate(3495.046875 0)"/>
    <use xlink:href="#DejaVuSans-73" transform="translate(3526.833984 0)"/>
    <use xlink:href="#DejaVuSans-61" transform="translate(3578.933594 0)"/>
    <use xlink:href="#DejaVuSans-6d" transform="translate(3640.212891 0)"/>
    <use xlink:href="#DejaVuSans-70" transform="translate(3737.625 0)"/>
    <use xlink:href="#DejaVuSans-6c" transform="translate(3801.101562 0)"/>
    <use xlink:href="#DejaVuSans-65" transform="translate(3828.884766 0)"/>
    <use xlink:href="#DejaVuSans-73" transform="translate(3890.408203 0)"/>
    <use xlink:href="#DejaVuSans-3a" transform="translate(3942.507812 0)"/>
    <use xlink:href="#DejaVuSans-20" transform="translate(3976.199219 0)"/>
    <use xlink:href="#DejaVuSans-33" transform="translate(4007.986328 0)"/>
    <use xlink:href="#DejaVuSans-31" transform="translate(4071.609375 0)"/>
    <use xlink:href="#DejaVuSans-36" transform="translate(4135.232422 0)"/>
    <use xlink:href="#DejaVuSans-30" transform="translate(4198.855469 0)"/>
    <use xlink:href="#DejaVuSans-20" transform="translate(4262.478516 0)"/>
    <use xlink:href="#DejaVuSans-28" transform="translate(4294.265625 0)"/>
    <use xlink:href="#DejaVuSans-32" transform="translate(4333.279297 0)"/>
    <use xlink:href="#DejaVuSans-30" transform="translate(4396.902344 0)"/>
    <use xlink:href="#DejaVuSans-25" transform="translate(4460.525391 0)"/>
    <use xlink:href="#DejaVuSans-20" transform="translate(4555.544922 0)"/>
    <use xlink:href="#DejaVuSans-73" transform="translate(4587.332031 0)"/>
    <use xlink:href="#DejaVuSans-70" transform="translate(4639.431641 0)"/>
    <use xlink:href="#DejaVuSans-6c" transform="translate(4702.908203 0)"/>
    <use xlink:href="#DejaVuSans-69" transform="translate(4730.691406 0)"/>
    <use xlink:href="#DejaVuSans-74" transform="translate(4758.474609 0)"/>
    <use xlink:href="#DejaVuSans-29" transform="translate(4797.683594 0)"/>
   </g>
  </g>
 </g>
 <defs>
  <clipPath id="p4b23bf7bdd">
   <rect x="43.78125" y="63.8784" width="412.92" height="242.2656"/>
  </clipPath>
 </defs>
</svg>
